<?xml version="1.0" encoding="UTF-8" standalone="no"?><!DOCTYPE svg PUBLIC "-//W3C//DTD SVG 1.1//EN" "http://www.w3.org/Graphics/SVG/1.1/DTD/svg11.dtd"><svg width="100%" height="100%" viewBox="0 0 24 24" version="1.1" xmlns="http://www.w3.org/2000/svg" xmlns:xlink="http://www.w3.org/1999/xlink" xml:space="preserve" xmlns:serif="http://www.serif.com/" style="fill-rule:evenodd;clip-rule:evenodd;stroke-linejoin:round;stroke-miterlimit:1.41421;"><g><path d="M14.219,23.306c-0.717,0.14 -1.459,0.214 -2.219,0.214c-0.76,0 -1.502,-0.074 -2.219,-0.214l0,-11.637c-0.004,-0.054 -0.002,-0.068 -0.019,-0.12c-0.038,-0.116 -0.131,-0.209 -0.248,-0.247c-0.051,-0.017 -0.066,-0.015 -0.119,-0.019l-8.893,0c0.097,-1.589 0.516,-3.091 1.193,-4.438l7.7,0c0.053,-0.005 0.068,-0.003 0.119,-0.019c0.117,-0.038 0.21,-0.132 0.248,-0.248c0.017,-0.052 0.015,-0.066 0.019,-0.119l0,-5.765c0.717,-0.14 1.459,-0.214 2.219,-0.214c0.76,0 1.502,0.074 2.219,0.214l0,5.765c0.004,0.053 0.002,0.067 0.019,0.119c0.038,0.116 0.131,0.21 0.248,0.248c0.051,0.016 0.066,0.014 0.119,0.019l7.7,0c0.677,1.349 1.096,2.851 1.193,4.438l-8.893,0c-0.053,0.004 -0.068,0.002 -0.119,0.019c-0.117,0.038 -0.21,0.131 -0.248,0.247c-0.017,0.052 -0.015,0.066 -0.019,0.12l0,11.637Z" style="fill:#3c9ca7;"/><path d="M14.991,23.127l0,-11.072l8.529,0c-0.024,5.304 -3.634,9.762 -8.529,11.072Z" style="fill:#3c9ca7;"/><path d="M9.009,23.127c-4.896,-1.312 -8.506,-5.769 -8.529,-11.072l8.529,0l0,11.072Z" style="fill:#3c9ca7;"/><path d="M2.12,6.073c1.516,-2.525 3.977,-4.422 6.889,-5.2l0,5.2l-6.889,0Z" style="fill:#3c9ca7;"/><path d="M21.881,6.073c-1.516,-2.525 -3.976,-4.422 -6.889,-5.2l0,5.2l6.889,0Z" style="fill:#3c9ca7;"/></g></svg>